<svg width="100" height="100" viewBox="0 0 100 100" fill="none" xmlns="http://www.w3.org/2000/svg">
<circle cx="50" cy="50" r="50" fill="#2C5696"/>
<g clip-path="url(#clip0_186_6)">
<path d="M49.8891 45.7777C47.1633 45.7777 44.5491 44.6949 42.6216 42.7674C40.6942 40.84 39.6113 38.2258 39.6113 35.4999C39.6113 32.7741 40.6942 30.1599 42.6216 28.2324C44.5491 26.305 47.1633 25.2221 49.8891 25.2221C52.6149 25.2221 55.2291 26.305 57.1566 28.2324C59.0841 30.1599 60.1669 32.7741 60.1669 35.4999C60.1669 38.2258 59.0841 40.84 57.1566 42.7674C55.2291 44.6949 52.6149 45.7777 49.8891 45.7777ZM49.8891 29.3333C46.4769 29.3333 43.7224 32.0877 43.7224 35.4999C43.7224 38.9121 46.4769 41.6666 49.8891 41.6666C53.3013 41.6666 56.0558 38.9121 56.0558 35.4999C56.0558 32.0877 53.3013 29.3333 49.8891 29.3333Z" fill="white"/>
<g filter="url(#filter0_d_186_6)">
<path d="M74.5557 62.2223C73.4046 62.2223 72.5001 61.3179 72.5001 60.1668C72.5001 59.0156 73.4046 58.1112 74.5557 58.1112C75.7068 58.1112 76.6112 57.2067 76.6112 56.0556C76.6112 53.3298 75.5284 50.7156 73.601 48.7881C71.6735 46.8607 69.0593 45.7779 66.3335 45.7779H62.2224C61.0712 45.7779 60.1668 44.8734 60.1668 43.7223C60.1668 42.5712 61.0712 41.6667 62.2224 41.6667C65.6346 41.6667 68.389 38.9123 68.389 35.5001C68.389 32.0878 65.6346 29.3334 62.2224 29.3334C61.0712 29.3334 60.1668 28.429 60.1668 27.2778C60.1668 26.1267 61.0712 25.2223 62.2224 25.2223C64.9482 25.2223 67.5624 26.3051 69.4898 28.2326C71.4173 30.16 72.5001 32.7742 72.5001 35.5001C72.5001 38.049 71.5957 40.3512 70.0335 42.1601C76.159 43.8045 80.7224 49.3956 80.7224 56.0556C80.7224 59.4679 77.9679 62.2223 74.5557 62.2223ZM25.2223 62.2223C21.8101 62.2223 19.0557 59.4679 19.0557 56.0556C19.0557 49.3956 23.5779 43.8045 29.7446 42.1601C28.2234 40.3512 27.2779 38.049 27.2779 35.5001C27.2779 32.7742 28.3607 30.16 30.2882 28.2326C32.2156 26.3051 34.8298 25.2223 37.5557 25.2223C38.7068 25.2223 39.6112 26.1267 39.6112 27.2778C39.6112 28.429 38.7068 29.3334 37.5557 29.3334C34.1434 29.3334 31.389 32.0878 31.389 35.5001C31.389 38.9123 34.1434 41.6667 37.5557 41.6667C38.7068 41.6667 39.6112 42.5712 39.6112 43.7223C39.6112 44.8734 38.7068 45.7779 37.5557 45.7779H33.4446C30.7187 45.7779 28.1045 46.8607 26.1771 48.7881C24.2496 50.7156 23.1668 53.3298 23.1668 56.0556C23.1668 57.2067 24.0712 58.1112 25.2223 58.1112C26.3734 58.1112 27.2779 59.0156 27.2779 60.1668C27.2779 61.3179 26.3734 62.2223 25.2223 62.2223ZM62.2224 74.5556H37.5557C34.1434 74.5556 31.389 71.8012 31.389 68.389V64.2779C31.389 56.3434 37.8435 49.889 45.7779 49.889H54.0001C61.9346 49.889 68.389 56.3434 68.389 64.2779V68.389C68.389 71.8012 65.6346 74.5556 62.2224 74.5556ZM45.7779 54.0001C43.0521 54.0001 40.4379 55.0829 38.5104 57.0104C36.583 58.9378 35.5001 61.552 35.5001 64.2779V68.389C35.5001 69.5401 36.4046 70.4445 37.5557 70.4445H62.2224C63.3735 70.4445 64.2779 69.5401 64.2779 68.389V64.2779C64.2779 61.552 63.1951 58.9378 61.2676 57.0104C59.3402 55.0829 56.726 54.0001 54.0001 54.0001H45.7779Z" fill="white"/>
</g>
</g>
<defs>
<filter id="filter0_d_186_6" x="16.5735" y="25.2223" width="66.6314" height="54.2977" filterUnits="userSpaceOnUse" color-interpolation-filters="sRGB">
<feFlood flood-opacity="0" result="BackgroundImageFix"/>
<feColorMatrix in="SourceAlpha" type="matrix" values="0 0 0 0 0 0 0 0 0 0 0 0 0 0 0 0 0 0 127 0" result="hardAlpha"/>
<feOffset dy="2.48218"/>
<feGaussianBlur stdDeviation="1.24109"/>
<feComposite in2="hardAlpha" operator="out"/>
<feColorMatrix type="matrix" values="0 0 0 0 0 0 0 0 0 0 0 0 0 0 0 0 0 0 0.25 0"/>
<feBlend mode="normal" in2="BackgroundImageFix" result="effect1_dropShadow_186_6"/>
<feBlend mode="normal" in="SourceGraphic" in2="effect1_dropShadow_186_6" result="shape"/>
</filter>
<clipPath id="clip0_186_6">
<rect width="65.7778" height="65.7778" fill="white" transform="translate(17 17)"/>
</clipPath>
</defs>
</svg>
