<svg width="1251" height="926" viewBox="0 0 1251 926" fill="none" xmlns="http://www.w3.org/2000/svg">
<path d="M475 199.5C237.8 223.9 82.1668 387.333 34.0001 466C-14.1669 544.667 0.000355721 592.5 13.5001 685C24.0504 757.291 125 861 297 836.5C469 812 596 827 830 791C890.5 768 1017.5 691 1066.5 592.5C1107.61 509.851 1265 331.5 1250 222C1235 112.5 1046 -20.0001 877.5 74.4999C709 169 771.5 169 475 199.5Z" fill="#DAE5F6"/>
<path d="M692.5 39.4999C680.5 64.6999 692.167 87.3333 699.5 95.4999L764.5 130L819.5 191.5L936.5 270C939 269.167 945.5 267.1 951.5 265.5C959 263.5 980 234.5 967 217.5C956.6 203.9 956.333 194.5 957.5 191.5C957.5 170 972.62 168.478 957.5 137.5C937 95.4999 892.5 116.5 869 76.5C845.5 36.5 839.5 24.4999 808.5 7.49992C777.5 -9.50008 707.5 7.99992 692.5 39.4999Z" fill="#FBEDC5"/>
<path d="M660.5 386C661.7 378.8 665.667 370.333 667.5 367H679.5C678.5 365.167 677.1 361.1 679.5 359.5C682.5 357.5 733.5 354 743.5 343.5C753.5 333 763.5 299.5 766.5 275.5C768.9 256.3 781.167 229.833 787 219C792.333 217.5 804.5 213.2 810.5 208C816.5 202.8 828.667 189.833 834 184C832.833 183.167 836.2 182 859 184C887.5 186.5 901.5 190.5 923 230C944.5 269.5 958 348 962.5 407.5C966.1 455.1 955.667 519.667 950 546C933 546 891.6 541 862 521C832.4 501 786 487 766.5 482.5C767.167 480.333 769.1 474.8 771.5 470C773.9 465.2 781.5 451.667 785 445.5L660.5 414C660 407.667 659.3 393.2 660.5 386Z" fill="#175C55"/>
<path d="M672 368.5C702.167 369.5 764.6 370.9 773 368.5C783.5 365.5 781 370 788 350C795 330 808.5 299 811 292.5C813 287.3 817.833 267.667 820 258.5" stroke="#063377" stroke-width="2"/>
<path d="M804.5 449C809.333 449.833 821.8 448 833 434C847 416.5 864 386 871.5 371C877.5 359 895.667 320.333 904 302.5" stroke="#063377" stroke-width="2"/>
<path d="M974.5 924.5L929.5 635H951L993.5 924.5H974.5Z" fill="#2C5696"/>
<path d="M736 636L725 722L738.5 769L758 636H736Z" fill="#2C5696"/>
<path d="M651.5 607L613 684.5L667.5 818.5L745 789L693 607H651.5Z" fill="#063377"/>
<path d="M738.5 791.5L686 812L704.5 855.5C707.833 856 717.8 856.2 731 853C744.2 849.8 754.833 842 758.5 838.5C756.667 835.833 752.5 829.2 750.5 824C748.5 818.8 741.667 800.167 738.5 791.5Z" fill="#F5AC9A"/>
<path d="M704.5 804.276L686 811.5L704.5 855C707.833 855.5 712.8 858.2 726 855L704.5 804.276Z" fill="#FEBAA8"/>
<path d="M223.5 194.5C240.7 225.3 230.667 261.667 223.5 276C221.167 276 215.5 275.4 211.5 273C206.5 270 204.5 276 188.5 263C172.5 250 171 230 170 222.5C169 215 164.5 214 159 197C151 170.6 161 157 167 153.5C176.167 149.833 200.3 152.9 223.5 194.5Z" fill="#175C55"/>
<path d="M256.5 225.5C236.1 250.3 238 286.5 241.5 301.5C243.5 304 250 306.9 260 298.5C272.5 288 275 294 285.5 281C296 268 304.5 245 310.5 217.5C316.5 190 309 192 300.5 195C292 198 282 194.5 256.5 225.5Z" fill="#175C55"/>
<path d="M217.5 251C225.1 269.4 232 310.333 234.5 328.5H230.5C229.667 324.5 226.4 309 220 279C213.6 249 194.667 211.167 186 196C193.333 206.667 209.9 232.6 217.5 251Z" fill="#063377"/>
<path d="M248.5 273.5C241.7 290.3 239.667 316.5 239.5 327.5H243.5C243.333 325.833 244.1 315.5 248.5 287.5C252.9 259.5 270 236.5 278 228.5C275.833 229.833 270.3 234.2 265.5 241C259.5 249.5 257 252.5 248.5 273.5Z" fill="#063377"/>
<path d="M192 456L150 923H166L216.5 456H192Z" fill="#2C5696"/>
<rect x="133" y="425" width="614" height="31" rx="5" fill="#2C5696"/>
<path d="M287.5 328H184L192 376.25L198.5 417.5C198.5 417.5 199.5 421 201 422.5C202.5 424 205.5 424.5 205.5 424.5H235H264C264 424.5 267.5 424 269 422.5C270.5 421 271.5 417.5 271.5 417.5L274.375 400.375L278.75 376.25L287.5 328Z" fill="#063377"/>
<path d="M483 871C472.6 871 452.667 863.333 444 859.5C435.5 865.833 413.6 880.1 394 886.5C369.5 894.5 351 901.5 346.5 912.5C342.9 921.3 351.667 924.833 356.5 925.5C396.333 925.833 478 926.3 486 925.5C496 924.5 501.5 923 507.5 915.5C512.3 909.5 507.5 879 504.5 864.5C501.667 866.667 493.4 871 483 871Z" fill="#2C5696"/>
<path d="M738.5 851C725.3 855.8 709.667 856.333 703.5 856C694.333 866 673.9 887.3 665.5 892.5C655 899 636.5 905.5 633 914C630.2 920.8 634.167 923.833 636.5 924.5C650.667 925 681.5 925.7 691.5 924.5C701.5 923.3 707.667 922 709.5 921.5C733 910 779.653 893.389 782.5 882C784 876 779.167 863.333 777.5 860L761 837C759 839.667 751.7 846.2 738.5 851Z" fill="#2C5696"/>
<path d="M452 846.5C450 852.5 446.167 857.667 444.5 859.5C448 862.167 458.7 868.1 473.5 870.5C488.3 872.9 499.667 868.167 503.5 865.5V861C503.5 859.4 504.833 856 505.5 854.5L517 830L465 808C461.5 818.333 454 840.5 452 846.5Z" fill="#F5AC9A"/>
<path d="M452.5 846.5C450.5 852.5 446.667 857.667 445 859.5C447.162 861.147 452.073 864.042 459 866.579L481 814.5L465.5 808C462 818.333 454.5 840.5 452.5 846.5Z" fill="#FEBAA8"/>
<path d="M700 615.75C700 605.395 708.395 597 718.75 597H952V636H720.25C709.066 636 700 626.934 700 615.75V615.75Z" fill="#2C5696"/>
<path d="M461.5 805C469.5 809.8 511.167 827 531 835L650 603.5C725.833 601.5 882.5 597.4 902.5 597C922.5 596.6 938.833 563.167 944.5 546.5C938.833 546.667 922.5 545.7 902.5 540.5C877.5 534 872.5 525 832.5 505.5C800.5 489.9 775.5 483.333 767 482C756.667 483.167 724.9 487.6 680.5 496C625 506.5 572 518 557 531.5C545 542.3 536.667 562.667 534 571.5L452.5 798.5C452.167 798.667 453.5 800.2 461.5 805Z" fill="#063377"/>
<path d="M952.5 589.5C946.1 595.5 928.833 597.667 921 598L949.5 636C955 634.5 969.3 629.2 982.5 620C995.7 610.8 1000 586.167 1000.5 575L1035 328.5C1037 320.5 1037.2 303.7 1022 300.5C1006.8 297.3 1001.33 306.833 1000.5 312C990 387 968.4 540.7 966 555.5C963 574 960.5 582 952.5 589.5Z" fill="#2C5696"/>
<path d="M725.5 404H579V425.5H725.5V404Z" fill="#063377"/>
<path d="M328.01 232.594C326.983 228.202 330.316 224 334.826 224H536.028C539.243 224 542.045 226.19 542.821 229.31L589.338 416.31C590.437 420.726 587.096 425 582.545 425H378.552C375.3 425 372.476 422.76 371.736 419.594L328.01 232.594Z" fill="#063377"/>
<path d="M636.5 366.5C648.9 367.3 660.667 372.833 665 375.5C663.667 377.167 661 382.1 661 388.5V404H626.5C623.333 401.5 616 396.1 612 394.5C607 392.5 604.5 395.5 590 396.5C575.5 397.5 576.5 401 557.5 402C538.5 403 544 394.5 548.5 388.5C553 382.5 568 370 586.5 364C605 358 621 365.5 636.5 366.5Z" fill="#F5AC9A"/>
<line x1="377" y1="267" x2="425" y2="267" stroke="#175C55" stroke-width="8"/>
<line x1="440" y1="267" x2="504" y2="267" stroke="#175C55" stroke-width="8"/>
<line x1="394.951" y1="291" x2="475.951" y2="290.012" stroke="#175C55" stroke-width="8"/>
<line x1="388" y1="314" x2="440.009" y2="314" stroke="#175C55" stroke-width="8"/>
<line x1="489" y1="291" x2="523" y2="291" stroke="#175C55" stroke-width="8"/>
<line x1="394" y1="336" x2="489" y2="336" stroke="#175C55" stroke-width="8"/>
<line x1="401" y1="362" x2="537" y2="362" stroke="#175C55" stroke-width="8"/>
<line x1="450" y1="314" x2="527" y2="314" stroke="#175C55" stroke-width="8"/>
<path d="M775 200.5C778.2 206.5 784.333 215.333 787 219C794 215.667 803 214 813 206C816.643 203.086 828.5 189.5 834.5 182C832.667 182 829.6 179.9 826 177.5C821.5 174.5 806 159 800.5 143.5C795 128 801 122.5 802.5 117C804 111.5 806.691 85.6196 791.5 83.5C770 80.5 780 98 760.5 98C741.7 98 716.167 75.6667 706 64C704.667 65.1667 701.6 69.8 700 79C698 90.5 699.5 93.5 700 114.5C700.5 135.5 696 130 697 138.5C697.8 145.3 705.667 147 709.5 147C710.333 156.667 715.6 177.6 730 184C744.4 190.4 759.333 184.333 765 180.5C767 184.667 771.8 194.5 775 200.5Z" fill="#F5AC9A"/>
<path d="M521 187L554 105" stroke="#175C55" stroke-width="7"/>
<path d="M569.5 126L606.5 150L569.5 171.5" stroke="#175C55" stroke-width="7"/>
<path d="M506 126L469 150L506 171.5" stroke="#175C55" stroke-width="7"/>
</svg>
