<svg width="167" height="31" viewBox="0 0 167 31" fill="none" xmlns="http://www.w3.org/2000/svg">
<path d="M0.4708 30V1.174H18.5488V6.19796H5.49476V12.0455H15.8515V17.0695H5.49476V24.976H18.5488V30H0.4708ZM23.1922 30V1.174H28.6279L40.7966 20.9198V1.174H45.8206V30H40.4054L28.2161 10.2542V30H23.1922ZM64.1219 30.5353C62.1178 30.5353 60.251 30.1441 58.5214 29.3617C56.8056 28.5793 55.3094 27.5017 54.0328 26.1291C52.7562 24.7427 51.7542 23.1504 51.0266 21.3522C50.3129 19.5403 49.956 17.6048 49.956 15.5458C49.956 13.377 50.3403 11.3866 51.109 9.57472C51.8914 7.7628 52.9552 6.19109 54.3005 4.85961C55.6457 3.52812 57.1693 2.49862 58.8714 1.77111C60.5873 1.0436 62.3717 0.679839 64.2248 0.679839C66.2976 0.679839 68.3085 1.16714 70.2577 2.14173C72.2206 3.10259 73.9502 4.59194 75.4464 6.60976L70.9578 9.01879C70.0381 7.8932 68.9811 7.05588 67.7869 6.50681C66.6064 5.94402 65.3985 5.66262 64.1631 5.66262C62.9551 5.66262 61.7952 5.9097 60.6834 6.40386C59.5852 6.89802 58.6038 7.59808 57.739 8.50404C56.8879 9.39627 56.2153 10.4532 55.7212 11.6749C55.227 12.8828 54.9799 14.2075 54.9799 15.6488C54.9799 17.0077 55.2201 18.2912 55.7006 19.4991C56.181 20.6933 56.8399 21.7434 57.6772 22.6494C58.5283 23.5416 59.5097 24.2417 60.6216 24.7495C61.7334 25.2574 62.9277 25.5114 64.2042 25.5114C65.0553 25.5114 65.8858 25.381 66.6956 25.1202C67.5192 24.8456 68.2879 24.4544 69.0017 23.9465C69.7292 23.4387 70.3744 22.821 70.9372 22.0934C71.5137 21.3659 71.9941 20.5423 72.3785 19.6226H67.128V15.237H78.2878C78.3427 17.3371 78.0133 19.3069 77.2995 21.1463C76.5857 22.9857 75.5768 24.6123 74.2728 26.0261C72.9687 27.44 71.4519 28.545 69.7224 29.3411C67.9928 30.1373 66.126 30.5353 64.1219 30.5353ZM89.8932 1.174H95.679L106.159 30H100.826L98.9734 24.8937H86.6194L84.7663 30H79.4334L89.8932 1.174ZM88.4519 19.8697H97.1203L92.7758 7.98929L88.4519 19.8697ZM121.428 30.5353C119.424 30.5353 117.557 30.1441 115.828 29.3617C114.112 28.5793 112.616 27.5017 111.339 26.1291C110.062 24.7427 109.06 23.1504 108.333 21.3522C107.619 19.5403 107.262 17.6048 107.262 15.5458C107.262 13.377 107.646 11.3866 108.415 9.57472C109.198 7.7628 110.261 6.19109 111.607 4.85961C112.952 3.52812 114.475 2.49862 116.178 1.77111C117.893 1.0436 119.678 0.679839 121.531 0.679839C123.604 0.679839 125.615 1.16714 127.564 2.14173C129.527 3.10259 131.256 4.59194 132.753 6.60976L128.264 9.01879C127.344 7.8932 126.287 7.05588 125.093 6.50681C123.913 5.94402 122.705 5.66262 121.469 5.66262C120.261 5.66262 119.101 5.9097 117.99 6.40386C116.891 6.89802 115.91 7.59808 115.045 8.50404C114.194 9.39627 113.521 10.4532 113.027 11.6749C112.533 12.8828 112.286 14.2075 112.286 15.6488C112.286 17.0077 112.526 18.2912 113.007 19.4991C113.487 20.6933 114.146 21.7434 114.983 22.6494C115.834 23.5416 116.816 24.2417 117.928 24.7495C119.04 25.2574 120.234 25.5114 121.51 25.5114C122.361 25.5114 123.192 25.381 124.002 25.1202C124.825 24.8456 125.594 24.4544 126.308 23.9465C127.035 23.4387 127.681 22.821 128.243 22.0934C128.82 21.3659 129.3 20.5423 129.685 19.6226H124.434V15.237H135.594C135.649 17.3371 135.319 19.3069 134.606 21.1463C133.892 22.9857 132.883 24.6123 131.579 26.0261C130.275 27.44 128.758 28.545 127.029 29.3411C125.299 30.1373 123.432 30.5353 121.428 30.5353ZM139.373 30V1.174H157.451V6.19796H144.397V12.0455H154.754V17.0695H144.397V24.976H157.451V30H139.373ZM161.603 21.3522V1.174H165.845V21.3522H161.603ZM163.744 30.5353C163.017 30.5353 162.399 30.2814 161.891 29.7735C161.397 29.2656 161.15 28.6479 161.15 27.9204C161.15 27.2066 161.397 26.6026 161.891 26.1085C162.399 25.6143 163.017 25.3672 163.744 25.3672C164.444 25.3672 165.042 25.6143 165.536 26.1085C166.03 26.6026 166.277 27.2066 166.277 27.9204C166.277 28.6479 166.03 29.2656 165.536 29.7735C165.042 30.2814 164.444 30.5353 163.744 30.5353Z" fill="white"/>
</svg>
