<svg width="130" height="178" viewBox="0 0 130 178" fill="none" xmlns="http://www.w3.org/2000/svg">
<path d="M112 167V17H17.5L0 35V167H112Z" fill="white"/>
<path d="M17.5 34.5H0L17.5 17V34.5Z" fill="#C6C6C6"/>
<path d="M14 129H53" stroke="#838383" stroke-width="3"/>
<path d="M14 137H53" stroke="#838383" stroke-width="3"/>
<path d="M14 98.5H98.5" stroke="#838383" stroke-width="3"/>
<path d="M14 89H98.5" stroke="#838383" stroke-width="3"/>
<path d="M14 80H98.5" stroke="#838383" stroke-width="3"/>
<path d="M16.2267 50.056H21.0738C22.7094 50.056 23.9361 50.4948 24.7539 51.3725C25.5717 52.2501 25.9806 53.5367 25.9806 55.2322V57.2966C25.9806 58.9921 25.5717 60.2787 24.7539 61.1563C23.9361 62.034 22.7094 62.4728 21.0738 62.4728H19.5179V71H16.2267V50.056ZM21.0738 59.4808C21.6123 59.4808 22.0113 59.3312 22.2706 59.032C22.5498 58.7328 22.6894 58.2242 22.6894 57.5061V55.0227C22.6894 54.3046 22.5498 53.796 22.2706 53.4968C22.0113 53.1976 21.6123 53.048 21.0738 53.048H19.5179V59.4808H21.0738ZM27.7681 50.056H36.7441V53.048H31.0593V58.5832H35.5772V61.5752H31.0593V68.008H36.7441V71H27.7681V50.056ZM41.2106 53.048H37.7698V50.056H47.9426V53.048H44.5018V71H41.2106V53.048ZM49.5361 50.056H52.8273V71H49.5361V50.056ZM57.8653 53.048H54.4245V50.056H64.5973V53.048H61.1565V71H57.8653V53.048ZM66.1908 50.056H69.482V71H66.1908V50.056ZM76.7042 71.2992C75.0885 71.2992 73.8518 70.8404 72.9941 69.9229C72.1364 69.0053 71.7075 67.7088 71.7075 66.0333V55.0227C71.7075 53.3472 72.1364 52.0507 72.9941 51.1331C73.8518 50.2156 75.0885 49.7568 76.7042 49.7568C78.3198 49.7568 79.5565 50.2156 80.4142 51.1331C81.2719 52.0507 81.7008 53.3472 81.7008 55.0227V66.0333C81.7008 67.7088 81.2719 69.0053 80.4142 69.9229C79.5565 70.8404 78.3198 71.2992 76.7042 71.2992ZM76.7042 68.3072C77.8411 68.3072 78.4096 67.619 78.4096 66.2427V54.8133C78.4096 53.437 77.8411 52.7488 76.7042 52.7488C75.5672 52.7488 74.9987 53.437 74.9987 54.8133V66.2427C74.9987 67.619 75.5672 68.3072 76.7042 68.3072ZM83.9266 50.056H88.0555L91.257 62.5925H91.3168V50.056H94.249V71H90.868L86.9186 55.7109H86.8587V71H83.9266V50.056Z" fill="#2C5696"/>
<circle cx="86.5" cy="17.5" r="17.5" fill="#109385"/>
<path d="M77 16L85.5 23.5L97 11" stroke="white" stroke-width="3"/>
<path d="M71.5 115.5L67 119.5L97.5 152.5L104 146.5L71.5 115.5Z" fill="#005461"/>
<path d="M103.5 144.5L96 152C96 152 116.5 173.5 118.5 175C120.5 176.5 127.8 179.1 129 177.5C130.2 175.9 128 170 126 167.5C124 165 103.5 144.5 103.5 144.5Z" fill="#0B414A"/>
<path d="M63 111L67 119.5L71.5 115.5L63 111Z" fill="#F9DF89"/>
<path d="M124 164.5L116 172.5L115 171.5L123 163.5L124 164.5Z" fill="#F9DF89" stroke="#F9DF89"/>
<path d="M125 164L110 149" stroke="#F9DF89" stroke-width="2"/>
</svg>
