<svg width="764" height="488" viewBox="0 0 764 488" fill="none" xmlns="http://www.w3.org/2000/svg">
<path d="M442.267 29.4941L763.504 214.96L321.629 471.748L0.38916 286.279L442.267 29.4941Z" fill="#F1F2F2"/>
<path d="M763.504 214.96L763.502 215.678L321.627 472.467L321.629 471.748L763.504 214.96Z" fill="#A0A4A6"/>
<path d="M321.629 471.748L321.627 472.467L0.38623 286.998L0.389229 286.279L321.629 471.748Z" fill="#707273"/>
<path d="M642.691 220.502L634.236 225.416L407.223 94.35L415.678 89.436L642.691 220.502Z" fill="#6D6E71"/>
<path d="M572.189 212.16L563.727 217.078L379.281 110.588L387.743 105.67L572.189 212.16Z" fill="#6D6E71"/>
<path d="M586.814 252.974L578.358 257.888L351.346 126.822L359.801 121.908L586.814 252.974Z" fill="#6D6E71"/>
<path d="M516.313 244.633L507.851 249.55L323.404 143.06L331.866 138.143L516.313 244.633Z" fill="#6D6E71"/>
<path d="M530.938 285.446L522.482 290.359L295.469 159.293L303.924 154.38L530.938 285.446Z" fill="#6D6E71"/>
<path d="M460.435 277.104L451.974 282.022L267.527 175.531L275.989 170.614L460.435 277.104Z" fill="#6D6E71"/>
<path d="M475.06 317.918L466.605 322.832L239.592 191.766L248.048 186.852L475.06 317.918Z" fill="#6D6E71"/>
<path d="M404.559 309.576L396.098 314.494L211.65 208.004L220.112 203.086L404.559 309.576Z" fill="#6D6E71"/>
<path d="M200.645 314.015L192.184 318.933L115.069 274.446L123.531 269.528L200.645 314.015Z" fill="#6D6E71"/>
<path opacity="0.21" d="M700.393 442.979L597.975 419.886C632.944 409.135 592.54 386.256 526.649 395.134C522.739 395.66 516.647 397.382 509.706 399.984L418.836 379.496L414.157 387.509L242.652 349.456C242.652 349.456 238.038 353.52 228.127 354.913C218.216 356.306 197.497 355.122 197.497 355.122L194.225 360.471C194.225 360.471 217.479 367.692 223.048 371.214C228.617 374.737 234.83 381.305 234.83 381.305L396.794 417.241L393.84 422.3L460.128 437.007C457.22 449.202 466.948 460.431 485.405 462.796C516.04 466.726 533.454 461.992 543.609 455.529L689.37 487.869C689.37 487.869 700.852 485.609 707.037 467.164C712.132 451.982 700.393 442.979 700.393 442.979Z" fill="#140A01"/>
<path d="M256.026 290.077C257.636 289.068 259.112 288.919 260.228 289.508L252.988 285.731C251.874 285.165 250.399 285.309 248.786 286.325C246.119 288.009 243.948 291.614 243.41 294.956L210.341 315.818L217.568 319.571L250.777 299.373C251.314 296.024 253.354 291.769 256.026 290.077Z" fill="#5D605C"/>
<path d="M250.943 325.511C266.137 310.841 281.571 301.444 282.375 300.946L275.135 297.191C274.331 297.684 259.028 307.01 243.9 321.58L241.67 320.411C237.633 318.319 227.644 315.59 210.867 326.183L218.106 329.94C232.102 321.099 241.374 321.546 246.384 323.145L250.943 325.511Z" fill="#5D605C"/>
<path d="M275.135 297.191L273.339 257.708C272.525 258.237 257.122 268.281 241.536 273.045C241.063 274.153 231.982 295.361 209.99 309.23L210.341 315.818L243.41 294.956C243.948 291.614 246.119 288.009 248.786 286.325C252.016 284.292 254.742 285.74 254.911 289.548C255.076 293.382 252.593 298.121 249.364 300.151C246.698 301.837 244.349 301.073 243.568 298.545L210.51 319.39L210.867 326.185C232.838 312.324 243.157 321.281 243.711 321.758C258.893 307.078 274.331 297.685 275.135 297.191Z" fill="#B3B5B1"/>
<mask id="mask0_150_450" style="mask-type:luminance" maskUnits="userSpaceOnUse" x="265" y="237" width="56" height="64">
<path d="M289.324 237.69L270.991 249.384C267.378 251.708 265.257 256.381 265.51 262.9C266.026 276.035 275.946 291.636 287.624 297.742C293.508 300.828 298.747 300.926 302.417 298.568L320.75 286.868C317.076 289.204 311.841 289.118 305.953 286.043C294.277 279.923 284.357 264.321 283.849 251.201C283.592 244.672 285.701 239.987 289.324 237.69Z" fill="white"/>
</mask>
<g mask="url(#mask0_150_450)">
<path d="M289.324 237.69L270.991 249.384C267.378 251.708 265.257 256.381 265.51 262.9C266.026 276.035 275.946 291.636 287.624 297.742C293.508 300.828 298.747 300.926 302.417 298.568L320.75 286.868C317.076 289.204 311.841 289.118 305.953 286.043C294.277 279.923 284.357 264.321 283.849 251.201C283.592 244.672 285.701 239.987 289.324 237.69Z" fill="#2C5696"/>
</g>
<mask id="mask1_150_450" style="mask-type:luminance" maskUnits="userSpaceOnUse" x="258" y="249" width="45" height="56">
<path d="M271.5 249.006L264.419 253.553C260.796 255.869 258.684 260.549 258.939 267.072C259.447 280.207 269.37 295.804 281.049 301.908C286.945 304.996 292.175 305.089 295.849 302.736L302.916 298.178C299.243 300.531 294.01 300.443 288.123 297.352C276.442 291.245 266.525 275.647 266.013 262.513C265.757 255.985 267.869 251.318 271.5 249.006Z" fill="white"/>
</mask>
<g mask="url(#mask1_150_450)">
<path d="M271.5 249.006L264.419 253.553C260.796 255.869 258.684 260.549 258.939 267.072C259.447 280.207 269.37 295.804 281.049 301.908C286.945 304.996 292.175 305.089 295.849 302.736L302.916 298.178C299.243 300.531 294.01 300.443 288.123 297.352C276.442 291.245 266.525 275.647 266.013 262.513C265.757 255.985 267.869 251.318 271.5 249.006Z" fill="#A52B00"/>
</g>
<path d="M304.095 238.504C292.421 232.39 283.338 238.065 283.849 251.201C284.358 264.321 294.278 279.923 305.953 286.043C317.666 292.157 326.74 286.482 326.225 273.356C325.714 260.228 315.802 244.628 304.095 238.504Z" fill="#0F2F3F"/>
<path d="M271.5 249.006L264.419 253.553C260.796 255.869 258.684 260.549 258.939 267.072C259.447 280.207 269.37 295.804 281.049 301.908C286.945 304.996 292.175 305.089 295.849 302.736L302.916 298.178C299.243 300.531 294.01 300.443 288.123 297.352C276.442 291.245 266.525 275.647 266.013 262.513C265.757 255.985 267.869 251.318 271.5 249.006Z" fill="#A52B00"/>
<mask id="mask2_150_450" style="mask-type:luminance" maskUnits="userSpaceOnUse" x="258" y="249" width="45" height="56">
<path d="M271.5 249.006L264.419 253.553C260.796 255.869 258.684 260.549 258.939 267.072C259.447 280.207 269.37 295.804 281.049 301.908C286.945 304.996 292.175 305.089 295.849 302.736L302.916 298.178C299.243 300.531 294.01 300.443 288.123 297.352C276.442 291.245 266.525 275.647 266.013 262.513C265.757 255.985 267.869 251.318 271.5 249.006Z" fill="white"/>
</mask>
<g mask="url(#mask2_150_450)">
<path d="M271.5 249.006L264.419 253.553C260.796 255.869 258.684 260.549 258.939 267.072C259.447 280.207 269.37 295.804 281.049 301.908C286.945 304.996 292.175 305.089 295.849 302.736L302.916 298.178C299.243 300.531 294.01 300.443 288.123 297.352C276.442 291.245 266.525 275.647 266.013 262.513C265.757 255.985 267.869 251.318 271.5 249.006Z" fill="#DB7E19"/>
</g>
<mask id="mask3_150_450" style="mask-type:luminance" maskUnits="userSpaceOnUse" x="287" y="153" width="171" height="132">
<path d="M430.655 153.645L292.079 240.805C288.974 242.796 287.161 246.806 287.381 252.39C287.819 263.637 296.301 277 306.333 282.247C311.393 284.893 315.873 284.966 319.009 282.954L457.587 195.8C454.439 197.806 449.962 197.727 444.907 195.088C434.885 189.855 426.393 176.467 425.957 165.236C425.743 159.641 427.55 155.63 430.655 153.645Z" fill="white"/>
</mask>
<g mask="url(#mask3_150_450)">
<path d="M430.655 153.645L292.079 240.805C288.974 242.796 287.161 246.806 287.381 252.39C287.819 263.637 296.301 277 306.333 282.247C311.393 284.893 315.873 284.966 319.009 282.954L457.587 195.8C454.439 197.806 449.962 197.727 444.907 195.088C434.885 189.855 426.393 176.467 425.957 165.236C425.743 159.641 427.55 155.63 430.655 153.645Z" fill="#2C5696"/>
</g>
<path d="M443.322 154.357C433.301 149.109 425.52 153.978 425.957 165.235C426.393 176.466 434.885 189.854 444.907 195.087C454.955 200.343 462.721 195.458 462.286 184.223C461.85 172.98 453.353 159.603 443.322 154.357Z" fill="#091E2E"/>
<mask id="mask4_150_450" style="mask-type:luminance" maskUnits="userSpaceOnUse" x="617" y="46" width="16" height="13">
<path d="M617.22 54.835L624.464 58.587C625.331 59.033 626.494 58.929 627.767 58.126C630.306 56.522 632.251 52.78 632.127 49.783L624.883 46.019C625.013 49.016 623.063 52.768 620.519 54.371C619.256 55.172 618.096 55.287 617.22 54.835Z" fill="white"/>
</mask>
<g mask="url(#mask4_150_450)">
<path d="M617.22 54.835L624.464 58.587C625.331 59.033 626.494 58.929 627.767 58.126C630.306 56.522 632.251 52.78 632.127 49.783L624.883 46.019C625.013 49.016 623.063 52.768 620.519 54.371C619.256 55.172 618.096 55.287 617.22 54.835Z" fill="#2C5696"/>
</g>
<path d="M453.094 110.643L605.881 14.2228C607.773 13.0308 609.531 12.8638 610.846 13.5408C613.008 14.6708 615.184 15.7978 617.351 16.9298C617.574 17.0378 617.872 17.1968 618.072 17.3048C616.767 16.6268 615.009 16.7958 613.124 17.9928L460.343 114.4C459.08 115.191 457.913 115.313 457.032 114.854L449.806 111.096C450.668 111.548 451.846 111.439 453.094 110.643Z" fill="#DB7E19"/>
<path d="M622.487 12.292C622.047 1.75 614.303 -2.27901 605.424 3.31699L452.648 99.73C450.118 101.321 448.147 105.058 448.274 108.082C448.404 111.103 450.572 112.233 453.093 110.643L605.88 14.223C609.693 11.825 612.948 13.563 613.136 18.072L614.802 57.658C614.914 60.661 617.076 61.814 619.618 60.213C622.155 58.613 624.104 54.858 623.983 51.869L622.487 12.292Z" fill="#F9991F"/>
<path d="M642.197 32.1748L642.279 32.1248C651.069 39.6128 658.793 52.6148 660.312 64.0658L660.2 64.1438C664.368 82.7668 654.679 82.4388 645.119 88.5318C659.936 79.0868 646.639 43.9438 626.107 33.2188C619.382 29.6998 613.419 29.6058 609.209 32.2878C618.714 26.2288 624.385 16.1378 642.197 32.1748Z" fill="#DB7E19"/>
<path d="M642.448 11.9771L424.495 149.459C420.453 152.038 418.106 157.262 418.4 164.518C418.973 179.167 429.999 196.551 443.028 203.363C449.597 206.799 455.425 206.906 459.51 204.291L677.458 66.806C673.376 69.425 667.551 69.307 660.979 65.882C647.956 59.073 636.919 41.685 636.348 27.038C636.062 19.773 638.419 14.5611 642.448 11.9771Z" fill="#FF8B0D"/>
<path d="M624.393 78.653C633.323 87.935 648.286 97.1 659.111 90.187L649.931 96.045C645.629 98.791 639.834 99.19 633.278 96.91L633.231 96.942C604.171 86.584 584.703 37.373 604.428 24.775L613.608 18.917C599.401 27.987 604.882 58.376 624.393 78.653Z" fill="#F9991F"/>
<path d="M667.067 70.6008C666.327 51.6008 651.935 28.9608 635.004 20.1068C633.172 19.1398 631.391 18.4248 629.655 17.8538C628.959 9.67478 627.7 7.29077 624.224 5.48277L616.989 1.71777C620.773 3.68877 621.935 6.41777 622.592 16.5728C612.113 16.3858 605.116 24.5168 605.664 38.4988C606.403 57.4998 620.759 80.1568 637.692 89.0068C654.627 97.8588 667.802 89.5998 667.067 70.6008ZM637.398 81.7278C624.059 74.7528 612.699 56.8808 612.117 41.8738C611.733 32.0038 616.128 25.8488 622.986 24.7578C623.249 31.4538 630.408 32.3108 630.086 25.2768C631.77 25.7428 633.491 26.4128 635.291 27.3558C648.663 34.3488 659.994 52.2248 660.586 67.2198C661.165 82.2278 650.793 88.7288 637.398 81.7278Z" fill="#ED7803"/>
<path d="M661.209 65.9328C648.196 59.1898 637.164 41.8038 636.552 27.1068C636.24 19.7028 638.628 14.3988 642.734 11.8008L614.961 29.7698C614.816 30.0088 614.629 30.3018 614.439 30.6318L648.698 84.2408L677.426 66.8328C673.376 69.3798 667.653 69.2868 661.209 65.9328Z" fill="#FF8B0D"/>
<path d="M683.486 51.6138C684.104 66.3068 674.064 72.7537 661.083 66.0067C648.072 59.2597 637.035 41.8717 636.416 27.1807C635.809 12.4707 645.846 6.01474 658.854 12.7747C671.836 19.5097 682.864 36.9038 683.486 51.6138Z" fill="#ED7803"/>
<path d="M412.654 249.077C412.654 249.077 391.793 254.761 388.121 255.052C381.031 255.591 362.821 253.926 365.211 248.814C365.598 247.983 371.231 241.875 380.274 242.053C388.809 242.217 403.423 234.46 403.423 234.46L405.93 240.598L412.654 249.077Z" fill="#E8C5AC"/>
<path d="M510.412 414.059C510.412 414.059 508.092 417.753 502.393 418.941C498.876 419.675 487.281 421.112 487.281 421.112C481.529 421.823 474.545 423.652 473.453 429.309C473.453 429.309 473.05 432.158 473.259 433.073C473.977 436.237 477.049 437.482 480.793 438.815C480.793 438.815 487.58 441.228 493.404 442.304C500.922 443.689 505.08 443.471 510.5 442.637C510.5 442.637 517.346 441.473 520.111 441.462C523.166 441.445 522.65 443.681 523.009 446.548L532.741 449.098C542.475 450.336 548.923 441.575 548.651 439.369L546.024 417.958L510.412 414.059Z" fill="#151D23"/>
<path d="M516.696 441.011C514.075 441.282 506.5 442.643 498.75 441.754C491.43 440.908 479.658 436.623 479.658 436.623C476.343 435.443 473.521 433.418 473.288 431.516C473.24 432.247 473.213 432.995 473.301 433.396C474.014 436.556 477.096 437.801 480.825 439.135C480.825 439.135 487.627 441.545 493.441 442.619C500.964 444.01 505.124 443.777 510.541 442.958C510.541 442.958 518.403 441.842 518.684 441.801C520.496 441.523 522.29 442.004 522.322 442.332C522.254 442.171 521.529 440.523 516.696 441.011Z" fill="#383736"/>
<path d="M532.248 445.303L522.602 442.785C522.699 443.732 522.938 445.952 523.043 446.879L532.781 449.42C542.512 450.665 548.963 441.897 548.693 439.691L548.155 435.578C548.432 437.788 541.991 446.546 532.248 445.303Z" fill="#383736"/>
<path d="M552.537 381.862C552.537 381.862 551.748 387.521 546.278 387.99C542.9 388.289 538.019 388.425 538.019 388.425C532.24 387.35 525.001 387.453 523.668 391.76C523.668 391.76 523.054 393.436 523.15 394.355C523.453 397.53 522.326 394.88 526.664 398.748C526.664 398.748 534.892 404.952 539.98 407.346C546.378 410.356 550.87 410.695 552.935 410.478C552.935 410.478 553.132 413.717 553.132 416.561L561.954 420.208C570.939 422.593 577.978 414.807 577.978 412.625V389.926L552.537 381.862Z" fill="#151D23"/>
<path d="M561.955 417.67L553.207 414.059C553.198 414.989 553.133 415.972 553.133 416.881L561.955 420.521C570.94 422.9 577.979 415.126 577.979 412.943V410.09C577.979 412.269 570.94 420.042 561.955 417.67Z" fill="#383736"/>
<path d="M611.299 141.165C620.82 138.873 630.546 133.091 631.75 122.299C632.563 115.046 630.562 95.9092 630.562 95.9092L608.341 109.429L569.927 100.927C569.927 100.927 558.829 97.6712 545.097 103.483C533.329 108.451 542.938 117.343 542.812 128.276C542.721 136.872 556.108 152.494 556.108 152.494C556.108 152.494 592.68 145.643 611.299 141.165Z" fill="#282827"/>
<path d="M574.35 251.355C574.35 251.355 579.194 228.618 551.036 228.618C528.727 228.618 528.727 252.293 528.727 252.293L540.01 396.136H560.394L574.35 251.355Z" fill="#E8C5AC"/>
<path d="M553.157 130.89L545.306 119.598L527.626 71.4819L504.328 87.6289L522.226 142.185C522.611 146.273 555.66 135.711 553.157 130.89Z" fill="#E8CAB5"/>
<path d="M521.391 215.57V228.618C521.391 238.31 523.706 254.754 523.706 254.754L568.277 256.446C573.888 255.32 576.021 247.655 576.021 239.932V215.57H521.391Z" fill="#14546D"/>
<path d="M574.35 251.355C574.35 251.355 572.506 235.548 552.855 235.548C550.227 235.548 552.855 235.521 545.11 235.544C526.328 235.602 523.707 254.753 523.707 254.753L535.407 395.582L557.761 396.135L574.35 251.355Z" fill="#FFE1CC"/>
<path d="M541.566 240.038L541.742 403.301C541.742 403.301 538.502 410.089 555.407 410.089C564.865 410.089 579.877 403.889 580.123 401.256L594.444 237.3L541.566 240.038Z" fill="#1E1E1A"/>
<path d="M519.284 253.634L508.201 409.138C508.131 409.062 505.776 416.759 504.324 417.569C502.89 418.372 503.813 420.423 504.58 422.341C505.419 424.434 512.368 432.605 531.402 431.634C537.199 431.335 547.754 428.319 548.035 425.829L570.506 250.854L519.284 253.634Z" fill="#383736"/>
<path d="M537.622 99.3951C540.869 98.2861 542.748 99.3541 543.582 101.335C544.406 103.27 544.734 104.108 545.699 105.968C546.488 107.513 545.752 107.695 545.752 107.695C545.752 107.695 527.522 112.754 515.906 122.38C507.652 129.229 507.031 129.867 507.031 129.867L508.453 122.897C509.512 116.968 515.656 110.634 525.193 105.303C525.193 105.303 533.646 100.74 537.622 99.3951Z" fill="#E4EFF4"/>
<path d="M517.464 279.156C522.149 280.233 528.383 281.051 535.119 280.884C546.134 280.61 559.006 277.45 567.409 274.951L568.242 268.468L552.661 257.073C541.33 259.234 526.987 261.608 518.715 261.596L517.464 279.156Z" fill="#282827"/>
<path d="M494.244 138.746C487.109 145.468 485.31 167.027 494.244 184.897C511.92 220.249 509.523 270.333 509.523 270.333C509.851 273.782 519.749 276.757 529.089 277.725C534.712 278.309 559.624 273.144 571.79 267.771C576.768 265.57 597.403 253.081 596.716 245.806L592.441 210.429C588.827 168.49 575.956 128.184 573.783 122.055C565.435 98.487 546.192 103.123 546.192 103.123C546.192 103.123 527.851 112.947 515.178 121.838C510.166 125.351 504.352 128.962 494.244 138.746Z" fill="#383736"/>
<path d="M484.916 49.8701L467.83 57.8931L490.305 101.229C496.503 113.773 502.75 113.452 506.66 111.836C514.801 108.482 521.852 100.14 525.246 95.5581C531.834 86.6711 525.309 71.7141 524.859 70.4531L515.05 39.3081L484.916 49.8701Z" fill="#E8C5AC"/>
<path d="M468.232 48.393C465.201 56.367 469.855 63.7429 470.505 63.9159C476.185 65.5509 484.057 77.247 486.735 82.027L489.298 86.491C489.96 88.24 493.304 89.8089 493.502 86.7699C493.726 83.3869 490.772 82.095 491.425 80.144C492.112 78.165 495.439 76.166 502.795 84.393L508.941 90.756C514.463 96.48 522.922 95.251 528.477 91.876C528.477 91.876 531.895 89.5279 532.381 86.9249C532.731 85.1009 535.156 68.837 535.076 63.946C534.799 47.378 527.469 35.486 516.025 30.276C510.388 27.717 503.18 28.6709 501.118 29.1229C492.191 31.1079 494.385 26.356 494.385 26.356C491.271 26.946 489.428 31.798 488.166 33.209C483.97 37.897 485.152 30.551 485.135 30.04C485.135 30.04 482.801 30.204 480.627 34.527C479.764 36.211 479.254 39.494 477.473 40.931C473.867 43.823 473.617 38.8569 473.463 39.0329C471.761 40.9119 468.232 48.393 468.232 48.393Z" fill="#2D1906"/>
<path d="M491.415 79.5078C491.415 79.5078 495.336 78.7168 498.158 82.5358C500.137 85.2508 500.015 88.1538 499.703 89.1108C498.881 91.6718 497.381 92.7138 497.381 92.7138C497.381 92.7138 494.754 85.4378 494.193 84.1138C493.629 82.8168 491.415 79.5078 491.415 79.5078Z" fill="#EFCFBD"/>
<path d="M489.07 78.5829C489.07 78.5829 487.027 79.8559 489.388 81.8159C492.173 84.1289 493.202 85.9229 493.895 87.6109C494.504 89.1679 495.565 93.9089 495.565 93.9089C495.565 93.9089 497.962 96.1289 498.145 92.1099C498.239 90.5119 497.707 87.7809 496.405 84.4659C495.875 83.1169 491.131 77.0459 489.07 78.5829Z" fill="#FFE8D9"/>
<path d="M403.832 240.183C403.832 240.183 404.303 233.79 397.195 230.855C391.853 228.649 382.734 225.384 382.734 225.384C382.734 225.384 378.72 229.069 383.797 232.795C388.144 235.997 389.642 235.992 391.064 238.204C392.587 240.591 392.168 244.918 392.168 244.918L404.133 248.09L403.832 240.183Z" fill="#E8C5AC"/>
<path d="M409.72 252.037C411.198 253.01 435.402 243.861 456.702 230.972C471.575 221.974 475.594 218.986 481.417 213.655C482.33 212.817 500.576 195.291 509.956 180.849C522.96 160.828 522.019 149.316 512.699 141.245C501.313 131.381 489.203 143.073 485.993 147.993C477.567 160.889 452.3 196.654 448.534 199.552C417.059 223.784 402.079 229.63 402.079 229.63C402.079 229.63 399.288 232.465 400.095 237.808C400.863 242.962 404.178 248.401 409.72 252.037Z" fill="#3A3E3F"/>
</svg>
