<svg width="481" height="194" viewBox="0 0 481 194" fill="none" xmlns="http://www.w3.org/2000/svg">
<g filter="url(#filter0_d_43_139)">
<rect x="54.1338" y="39" width="372.919" height="116" rx="8.59259" fill="white"/>
</g>
<path d="M148.573 110.37V83.3037H158.781C160.263 83.3037 161.603 83.6839 162.802 84.4444C164.014 85.1919 164.974 86.1972 165.683 87.4604C166.392 88.7106 166.746 90.0832 166.746 91.5784C166.746 93.0992 166.379 94.4848 165.644 95.735C164.922 96.9852 163.956 97.9841 162.744 98.7317C161.533 99.4792 160.211 99.853 158.781 99.853H154.373V110.37H148.573ZM154.373 94.053H158.123C158.639 94.053 159.109 93.9241 159.535 93.6664C159.96 93.3957 160.302 93.0412 160.559 92.603C160.817 92.1648 160.946 91.6815 160.946 91.153C160.946 90.6246 160.817 90.1412 160.559 89.703C160.302 89.2648 159.96 88.9168 159.535 88.659C159.109 88.3884 158.639 88.253 158.123 88.253H154.373V94.053ZM185.448 83.3037H191.248V110.37H185.448V98.7704H175.858V110.37H170.058V83.3037H175.858V92.9704H185.448V83.3037ZM204.935 83.3037H211.469L221.291 110.37H215.143L213.596 106.117H202.808L201.261 110.37H195.113L204.935 83.3037ZM204.935 100.317H211.469L208.183 91.3464L204.935 100.317ZM232.708 110.873C231.188 110.873 229.731 110.635 228.339 110.158C226.947 109.668 225.729 108.972 224.685 108.07C223.641 107.155 222.887 106.065 222.423 104.802L227.875 102.792C228.004 103.165 228.288 103.526 228.726 103.874C229.177 104.222 229.744 104.512 230.427 104.744C231.11 104.963 231.871 105.073 232.708 105.073C233.482 105.073 234.21 104.963 234.893 104.744C235.576 104.512 236.13 104.197 236.556 103.797C236.981 103.397 237.194 102.933 237.194 102.405C237.194 101.864 236.968 101.419 236.517 101.071C236.079 100.71 235.512 100.427 234.816 100.22C234.133 100.001 233.43 99.8401 232.708 99.737C230.749 99.4535 228.99 98.9895 227.43 98.345C225.884 97.6877 224.659 96.7855 223.757 95.6384C222.868 94.4912 222.423 93.0348 222.423 91.269C222.423 89.5806 222.9 88.1048 223.854 86.8417C224.808 85.5657 226.064 84.5732 227.624 83.8644C229.196 83.1555 230.891 82.801 232.708 82.801C234.229 82.801 235.686 83.0459 237.078 83.5357C238.483 84.0126 239.707 84.7086 240.751 85.6237C241.795 86.5388 242.543 87.6344 242.994 88.9104L237.542 90.8824C237.413 90.5086 237.123 90.1541 236.672 89.819C236.234 89.471 235.673 89.1875 234.99 88.9684C234.307 88.7492 233.546 88.6397 232.708 88.6397C231.961 88.6268 231.246 88.7364 230.562 88.9684C229.879 89.2004 229.319 89.5161 228.88 89.9157C228.442 90.3152 228.223 90.7664 228.223 91.269C228.223 91.965 228.429 92.487 228.842 92.835C229.254 93.1701 229.796 93.4086 230.466 93.5504C231.149 93.6921 231.896 93.821 232.708 93.937C234.564 94.2077 236.272 94.691 237.832 95.387C239.391 96.083 240.642 97.011 241.582 98.171C242.523 99.331 242.994 100.742 242.994 102.405C242.994 104.093 242.517 105.576 241.563 106.852C240.622 108.115 239.372 109.101 237.812 109.81C236.253 110.519 234.552 110.873 232.708 110.873ZM247.241 110.37V83.3037H264.486V89.1037H253.041V92.9704H261.857V98.7704H253.041V104.57H264.486V110.37H247.241ZM285.788 110.873C284.164 110.873 282.675 110.473 281.322 109.674C279.968 108.875 278.886 107.799 278.074 106.446C277.262 105.092 276.856 103.591 276.856 101.941H282.656C282.656 102.508 282.797 103.03 283.081 103.507C283.364 103.984 283.745 104.364 284.222 104.648C284.698 104.931 285.22 105.073 285.788 105.073C286.355 105.073 286.877 104.931 287.354 104.648C287.83 104.364 288.211 103.984 288.494 103.507C288.778 103.03 288.92 102.508 288.92 101.941C288.92 101.155 288.7 100.504 288.262 99.9884C287.824 99.4599 287.205 99.0668 286.406 98.809C285.62 98.5512 284.692 98.4224 283.622 98.4224V94.0144C285.04 94.0144 286.155 93.7759 286.967 93.299C287.779 92.8092 288.185 92.081 288.185 91.1144C288.185 90.6504 288.069 90.225 287.837 89.8384C287.618 89.4517 287.315 89.1424 286.928 88.9104C286.554 88.6784 286.136 88.5624 285.672 88.5624C285.195 88.5624 284.724 88.6784 284.26 88.9104C283.796 89.1424 283.41 89.4517 283.1 89.8384C282.804 90.225 282.656 90.6504 282.656 91.1144H276.856C276.856 89.9672 277.088 88.891 277.552 87.8857C278.028 86.8675 278.673 85.9781 279.485 85.2177C280.31 84.4444 281.244 83.845 282.288 83.4197C283.345 82.9815 284.447 82.7624 285.594 82.7624C287.102 82.7624 288.494 83.1361 289.77 83.8837C291.046 84.6312 292.064 85.6366 292.825 86.8997C293.598 88.1628 293.985 89.5677 293.985 91.1144C293.985 92.0166 293.792 92.951 293.405 93.9177C293.018 94.8844 292.438 95.5739 291.665 95.9864C292.335 96.2441 292.896 96.7017 293.347 97.359C293.798 98.0035 294.14 98.7381 294.372 99.563C294.604 100.375 294.72 101.168 294.72 101.941C294.72 103.578 294.314 105.073 293.502 106.426C292.702 107.78 291.626 108.862 290.273 109.674C288.92 110.473 287.424 110.873 285.788 110.873ZM311.093 83.3037L303.244 112.536H297.444L305.293 83.3037H311.093ZM323.22 110.873C321.467 110.873 319.862 110.441 318.406 109.578C316.949 108.701 315.783 107.535 314.907 106.078C314.03 104.609 313.592 102.985 313.592 101.206C313.592 100.369 313.695 99.5437 313.901 98.7317C314.107 97.9068 314.43 97.1206 314.868 96.373L322.408 83.3037H329.136L324.341 91.5784C325.321 91.6944 326.242 91.9457 327.106 92.3324C327.982 92.7061 328.775 93.1959 329.484 93.8017C330.193 94.3946 330.805 95.0777 331.321 95.851C331.836 96.6244 332.229 97.4621 332.5 98.3644C332.783 99.2666 332.925 100.214 332.925 101.206C332.925 102.534 332.674 103.784 332.171 104.957C331.669 106.117 330.973 107.142 330.083 108.031C329.194 108.92 328.163 109.616 326.99 110.119C325.817 110.622 324.56 110.873 323.22 110.873ZM323.22 105.073C323.967 105.073 324.631 104.893 325.211 104.532C325.804 104.158 326.268 103.681 326.603 103.101C326.951 102.508 327.125 101.889 327.125 101.245C327.125 100.536 326.958 99.8852 326.623 99.2924C326.287 98.6995 325.823 98.229 325.231 97.881C324.651 97.5201 323.993 97.3397 323.259 97.3397C322.485 97.3397 321.809 97.5266 321.229 97.9004C320.649 98.2741 320.197 98.7575 319.875 99.3504C319.553 99.9432 319.392 100.575 319.392 101.245C319.392 101.98 319.572 102.637 319.933 103.217C320.307 103.784 320.784 104.235 321.364 104.57C321.944 104.905 322.563 105.073 323.22 105.073Z" fill="#353535"/>
<defs>
<filter id="filter0_d_43_139" x="15.4671" y="0.333333" width="450.252" height="193.333" filterUnits="userSpaceOnUse" color-interpolation-filters="sRGB">
<feFlood flood-opacity="0" result="BackgroundImageFix"/>
<feColorMatrix in="SourceAlpha" type="matrix" values="0 0 0 0 0 0 0 0 0 0 0 0 0 0 0 0 0 0 127 0" result="hardAlpha"/>
<feMorphology radius="6.87407" operator="dilate" in="SourceAlpha" result="effect1_dropShadow_43_139"/>
<feOffset/>
<feGaussianBlur stdDeviation="15.8963"/>
<feComposite in2="hardAlpha" operator="out"/>
<feColorMatrix type="matrix" values="0 0 0 0 0 0 0 0 0 0 0 0 0 0 0 0 0 0 0.1 0"/>
<feBlend mode="normal" in2="BackgroundImageFix" result="effect1_dropShadow_43_139"/>
<feBlend mode="normal" in="SourceGraphic" in2="effect1_dropShadow_43_139" result="shape"/>
</filter>
</defs>
</svg>
