<svg width="465" height="188" viewBox="0 0 465 188" fill="none" xmlns="http://www.w3.org/2000/svg">
<g filter="url(#filter0_d_43_138)">
<rect x="52.3857" y="37.7881" width="360.88" height="112.255" rx="8.31522" fill="white"/>
</g>
<path d="M135.23 80.8559H141.554L151.058 107.049H145.109L143.612 102.933H133.172L131.676 107.049H125.726L135.23 80.8559ZM135.23 97.32H141.554L138.373 88.6389L135.23 97.32ZM170.862 80.8559V86.4687H163.378V107.049H157.766V86.4687H150.282V80.8559H170.862ZM194.431 80.8559V86.4687H186.948V107.049H181.335V86.4687H173.851V80.8559H194.431ZM198.169 107.049V80.8559H214.857V86.4687H203.782V90.2105H212.313V95.8233H203.782V101.436H214.857V107.049H198.169ZM218.961 107.049V80.8559H225.023L234.602 96.9084V80.8559H240.215V107.049H234.153L224.574 90.9963V107.049H218.961ZM264.554 80.8559V86.4687H257.071V107.049H251.458V86.4687H243.974V80.8559H264.554ZM268.853 107.049V80.8559H274.466V107.049H268.853ZM291.671 107.535C289.9 107.535 288.235 107.186 286.676 106.488C285.117 105.777 283.745 104.797 282.56 103.55C281.375 102.303 280.446 100.862 279.772 99.2284C279.098 97.582 278.762 95.8233 278.762 93.9524C278.762 92.0814 279.098 90.329 279.772 88.6951C280.446 87.0486 281.375 85.6018 282.56 84.3545C283.745 83.1072 285.117 82.1344 286.676 81.4359C288.235 80.7249 289.9 80.3694 291.671 80.3694C293.455 80.3694 295.126 80.7249 296.685 81.4359C298.244 82.1344 299.616 83.1072 300.801 84.3545C301.986 85.6018 302.909 87.0486 303.57 88.6951C304.244 90.329 304.58 92.0814 304.58 93.9524C304.58 95.8233 304.244 97.582 303.57 99.2284C302.909 100.862 301.986 102.303 300.801 103.55C299.616 104.797 298.244 105.777 296.685 106.488C295.126 107.186 293.455 107.535 291.671 107.535ZM291.671 101.922C292.669 101.922 293.604 101.717 294.477 101.305C295.363 100.881 296.143 100.307 296.816 99.5838C297.49 98.8479 298.014 97.9998 298.388 97.0394C298.774 96.079 298.968 95.05 298.968 93.9524C298.968 92.8548 298.774 91.8257 298.388 90.8653C298.014 89.9049 297.49 89.063 296.816 88.3396C296.143 87.6037 295.363 87.0299 294.477 86.6183C293.604 86.1943 292.669 85.9822 291.671 85.9822C290.673 85.9822 289.732 86.1943 288.846 86.6183C287.973 87.0299 287.2 87.6037 286.526 88.3396C285.853 89.063 285.322 89.9049 284.936 90.8653C284.562 91.8257 284.374 92.8548 284.374 93.9524C284.374 95.05 284.562 96.079 284.936 97.0394C285.322 97.9998 285.853 98.8479 286.526 99.5838C287.2 100.307 287.973 100.881 288.846 101.305C289.732 101.717 290.673 101.922 291.671 101.922ZM307.757 107.049V80.8559H313.818L323.398 96.9084V80.8559H329.01V107.049H322.949L313.369 90.9963V107.049H307.757ZM333.219 99.1909V80.8559H337.896V99.1909H333.219ZM335.576 107.535C334.791 107.535 334.123 107.261 333.575 106.712C333.038 106.163 332.77 105.49 332.77 104.691C332.77 103.918 333.038 103.263 333.575 102.727C334.123 102.191 334.791 101.922 335.576 101.922C336.35 101.922 337.005 102.191 337.541 102.727C338.077 103.263 338.345 103.918 338.345 104.691C338.345 105.49 338.077 106.163 337.541 106.712C337.005 107.261 336.35 107.535 335.576 107.535Z" fill="#353535"/>
<defs>
<filter id="filter0_d_43_138" x="14.9673" y="0.369608" width="435.718" height="187.092" filterUnits="userSpaceOnUse" color-interpolation-filters="sRGB">
<feFlood flood-opacity="0" result="BackgroundImageFix"/>
<feColorMatrix in="SourceAlpha" type="matrix" values="0 0 0 0 0 0 0 0 0 0 0 0 0 0 0 0 0 0 127 0" result="hardAlpha"/>
<feMorphology radius="6.65217" operator="dilate" in="SourceAlpha" result="effect1_dropShadow_43_138"/>
<feOffset/>
<feGaussianBlur stdDeviation="15.3832"/>
<feComposite in2="hardAlpha" operator="out"/>
<feColorMatrix type="matrix" values="0 0 0 0 0 0 0 0 0 0 0 0 0 0 0 0 0 0 0.1 0"/>
<feBlend mode="normal" in2="BackgroundImageFix" result="effect1_dropShadow_43_138"/>
<feBlend mode="normal" in="SourceGraphic" in2="effect1_dropShadow_43_138" result="shape"/>
</filter>
</defs>
</svg>
