<svg viewBox="0 0 400 300" xmlns="http://www.w3.org/2000/svg">
  <line x1="135" y1="150" x2="145" y2="150" stroke="#37414F" stroke-width="3"/>
  <line x1="255" y1="150" x2="265" y2="150" stroke="#37414F" stroke-width="3"/>

  <g transform="translate(80,150)">
    <circle r="55" fill="none" stroke="#37414F" stroke-width="3"/>
    <path d="M0 -26 L20 -16 V6 Q20 22 0 30 Q-20 22 -20 6 V-16 Z" fill="none" stroke="#3DDC84" stroke-width="4" stroke-linejoin="round"/>
    <path d="M-9 2 L-2 10 L13 -8" fill="none" stroke="#3DDC84" stroke-width="4" stroke-linecap="round" stroke-linejoin="round"/>
  </g>

  <g transform="translate(200,150)">
    <circle r="55" fill="none" stroke="#37414F" stroke-width="3"/>
    <path d="M-30 0 Q0 -22 30 0 Q0 22 -30 0 Z" fill="none" stroke="#E8A93B" stroke-width="4" stroke-linejoin="round"/>
    <circle cx="0" cy="0" r="9" fill="none" stroke="#E8A93B" stroke-width="4"/>
  </g>

  <g transform="translate(320,150)">
    <circle r="55" fill="none" stroke="#37414F" stroke-width="3"/>
    <path d="M-22 25 V-5 H-14 V-15 H-6 V-5 H6 V-15 H14 V-5 H22 V25 Z" fill="none" stroke="#E5484D" stroke-width="4" stroke-linejoin="round"/>
  </g>
</svg>
